<svg width="256" height="256" viewBox="0 0 256 256" role="img" aria-label="Accounts logo: money and report" xmlns="http://www.w3.org/2000/svg">
  <defs>
    <style>
      .ink{stroke:#1F1539;stroke-width:2.5;stroke-linecap:round;stroke-linejoin:round}
    </style>
  </defs>
  <!-- Background tile -->
  <rect x="8" y="8" width="240" height="240" rx="32" fill="#F4F2FB"/>
  <!-- Coin circle -->
  <circle cx="112" cy="128" r="60" fill="#8E79D6" class=""/>
  <circle cx="112" cy="128" r="60" fill="none" class="ink"/>
  <!-- Pound symbol, minimal -->
  <path d="M98 118c0-12 9-22 21-22 7 0 13 3 17 8M86 138h40m-28 18h44" fill="none" class="ink"/>
  <!-- Report card -->
  <rect x="132" y="86" width="68" height="92" rx="8" fill="#FFFFFF" class="ink"/>
  <!-- Report header line -->
  <line x1="144" y1="100" x2="188" y2="100" class="ink"/>
  <!-- Bars -->
  <rect x="144" y="114" width="12" height="48" rx="2" fill="#6D5BA6"/>
  <rect x="162" y="124" width="12" height="38" rx="2" fill="#8E79D6"/>
  <rect x="180" y="134" width="12" height="28" rx="2" fill="#6D5BA6"/>
  <!-- Subtle shadow line between layers -->
  <path d="M128 96l16-12" opacity="0.12" stroke="#1F1539" stroke-width="6" stroke-linecap="round"/>
</svg>
